# xmcd
#
# Track frame offsets:
#	150
#	11547
#	22305
#	34437
#	46057
#	56042
#	66105
#	79085
#	90275
#	100710
#	113017
#
# Disc length: 1662 seconds
#
# Revision: 0
# Processed by: cddbd v1.5.2PL0 Copyright (c) Steve Scherf et al.
# Submitted via: EasyCDDAExtractor 10.5.1.1
#
DISCID=83067c0b
DTITLE=Mac Wiseman - The Singles
DYEAR=1900
DGENRE=Country
TTITLE0=Footprints in the Snow
TTITLE1=Just OUtside
TTITLE2=What's Gonna Happen to Me
TTITLE3=Pistol Packin' Preacher
TTITLE4=Wildfire
TTITLE5=I Like Good Bluegrass Music
TTITLE6=Your Best Friend and Me
TTITLE7=When the Moon Comes Over the Mountain
TTITLE8='Tis Sweet to be Remembered
TTITLE9=The Scene of the Crime
TTITLE10=What a Waste of Good Corn Likker
EXTD=
EXTT0=
EXTT1=
EXTT2=
EXTT3=
EXTT4=
EXTT5=
EXTT6=
EXTT7=
EXTT8=
EXTT9=
EXTT10=
PLAYORDER=
